<?xml version="1.0" encoding="UTF-8"?>
<!DOCTYPE svg PUBLIC "-//W3C//DTD SVG 1.1//EN" "http://www.w3.org/Graphics/SVG/1.1/DTD/svg11.dtd">
<!-- Creator: CorelDRAW 2019 (64 Bit) -->
<svg xmlns="http://www.w3.org/2000/svg" xml:space="preserve" width="297mm" height="210mm" version="1.1" style="shape-rendering:geometricPrecision; text-rendering:geometricPrecision; image-rendering:optimizeQuality; fill-rule:evenodd; clip-rule:evenodd"
viewBox="0 0 29700 21000"
 xmlns:xlink="http://www.w3.org/1999/xlink">
 <defs>
  <style type="text/css">
   <![CDATA[
    .fil3 {fill:#334F7D}
    .fil4 {fill:#30C9B9}
    .fil2 {fill:#30C9B9}
    .fil1 {fill:#334F7D;fill-rule:nonzero}
    .fil0 {fill:#30C9B9;fill-rule:nonzero}
   ]]>
  </style>
 </defs>
 <g id="Camada_x0020_1">
  <metadata id="CorelCorpID_0Corel-Layer"/>
  <path class="fil0" d="M12544.43 10490.47l0 -2218.41c0,-71.89 25.2,-133.35 75.59,-183.74 50.39,-50.39 111.84,-75.58 183.74,-75.58l714.06 0c379.78,0 663.07,100.78 850.5,302.34 187.42,211.39 281.44,523.57 281.44,936.52 0,220.62 -33.79,420.33 -100.78,597.93 -76.81,182.51 -178.21,321.39 -302.95,417.87 -105.7,81.12 -218.77,138.88 -339.22,172.68 -114.91,33.8 -290.66,50.39 -526.02,50.39l-836.36 0zm497.76 -446.14l410.5 0c235.36,0 408.03,-62.68 518.65,-187.43 105.69,-115.53 158.54,-317.09 158.54,-605.3 0,-278.99 -50.39,-483.01 -151.17,-612.67 -95.86,-129.66 -249.49,-194.8 -460.89,-194.8l-475.63 0 0 1600.2zm3289.79 -143.8l360.11 0c-52.85,201.57 -153.63,355.19 -302.34,460.89 -148.72,110.61 -336.14,165.92 -561.67,165.92 -273.46,0 -487.93,-89.1 -641.56,-266.7 -154.24,-172.68 -231.06,-419.71 -231.06,-741.72 0,-307.26 74.36,-546.92 223.69,-719.6 154.24,-177.6 368.09,-266.7 641.55,-266.7 288.21,0 511.28,86.03 669.83,258.71 153.63,176.98 230.44,424.02 230.44,740.49 0,19.05 0,35.65 0,49.78 0,14.75 0,23.97 0,28.88 0,23.97 -2.46,40.56 -7.37,50.39l-1245.63 0c4.92,149.94 40.56,261.17 108.16,333.69 62.06,77.42 156.08,116.14 280.83,116.14 81.73,0 151.17,-17.21 208.94,-51.01 14.13,-4.3 27.65,-12.9 39.33,-25.19 12.29,-11.68 25.19,-25.2 39.94,-39.94 4.3,-14.14 22.74,-33.8 53.46,-57.77 31.34,-23.97 76.2,-36.26 133.35,-36.26zm-864.01 -564.12l734.35 0c-9.22,-129.05 -43.02,-224.92 -100.78,-286.98 -62.07,-66.98 -151.17,-100.17 -266.09,-100.17 -105.69,0 -192.34,33.19 -259.32,100.17 -67.6,66.98 -103.24,162.85 -108.16,286.98zm2880.52 -82.96c0,278.37 60.22,489.77 180.06,634.18 119.83,148.71 290.66,223.07 511.27,223.07 216.31,0 386.53,-74.36 511.28,-223.07 124.75,-154.24 187.43,-365.02 187.43,-634.18 0,-269.16 -62.68,-483.01 -187.43,-641.56 -124.75,-148.71 -294.97,-223.07 -511.28,-223.07 -220.61,0 -391.44,74.36 -511.27,223.07 -119.84,149.33 -180.06,363.18 -180.06,641.56zm-512.51 0c0,-403.74 105.7,-722.67 317.1,-958.03 226.14,-235.36 521.72,-352.74 886.74,-352.74 360.72,0 656.31,117.38 886.75,352.74 216.31,240.27 324.47,559.21 324.47,958.03 0,398.2 -108.16,715.3 -324.47,950.04 -221.23,230.44 -516.81,345.97 -886.75,345.97 -374.85,0 -670.43,-115.53 -886.74,-345.97 -211.4,-229.83 -317.1,-546.92 -317.1,-950.04zm2802.48 -1240.71l259.94 0c66.99,0 124.75,22.74 173.3,68.21 47.93,46.09 71.9,102.01 71.9,169.61l0 2239.91 -505.14 0 0 -2477.73zm2046.01 1102.44c-72.51,-100.78 -170.83,-151.17 -295.58,-151.17 -134.58,0 -238.43,47.93 -310.33,143.8 -71.9,95.86 -108.16,227.98 -108.16,396.36l0 986.3 -490.38 0 0 -2477.73 245.19 0c67.6,0 124.75,23.96 173.3,71.9 47.93,47.93 71.89,105.69 71.89,173.29l0 568.43c86.65,-143.8 208.94,-234.75 368.1,-273.46 158.55,-38.1 309.72,-28.88 454.13,28.88 134.58,57.77 247.65,148.71 338.6,273.46 91.56,125.36 137.03,298.04 137.03,518.65l0 1116.58 -483.01 0 0 -993.67c0,-71.9 -6.14,-138.27 -17.82,-197.88 -12.29,-60.22 -39.94,-121.67 -82.96,-183.74zm1158.03 1202.61c-100.78,-86.65 -172.68,-202.79 -216.31,-349.66 -43.01,-146.25 -64.52,-298.65 -64.52,-457.2 0,-129.66 17.82,-259.33 54.08,-388.99 35.64,-129.66 92.17,-237.2 168.99,-323.85 124.74,-143.8 285.75,-229.21 482.39,-255.64 197.26,-26.42 374.86,-11.06 533.4,46.71 181.9,71.89 316.48,197.26 403.13,374.85 81.73,157.93 122.29,342.9 122.29,554.29 0,153.63 -16.6,285.75 -50.39,395.75 -33.8,110.62 -76.82,204.64 -129.67,281.45 -114.91,157.93 -261.78,256.26 -439.38,294.97 -158.54,43.02 -317.7,46.7 -478.71,11.06 -161,-36.26 -289.43,-97.71 -385.3,-183.74zm344.75 -1267.75c-100.78,110.62 -146.26,275.31 -136.43,493.46 9.22,218.15 50.39,370.55 122.29,457.2 28.88,38.71 79.28,70.67 151.17,97.09 71.9,26.43 145.03,28.89 219.39,7.38 74.35,-21.51 140.72,-75.59 198.48,-162.23 57.15,-86.04 88.5,-225.53 93.41,-417.26 0,-173.29 -27.65,-302.96 -82.96,-388.99 -55.3,-86.65 -118.6,-141.95 -190.5,-165.92 -71.9,-23.97 -144.41,-25.19 -216.31,-3.69 -71.9,22.13 -124.75,49.78 -158.54,82.96z"/>
  <path class="fil1" d="M14148.88 13199.99l-219.09 0c-62.36,0 -113.54,-19.72 -152.98,-59.17 -39.98,-39.98 -59.7,-90.62 -59.7,-153.52l0 0 0 -849.69c0,-99.68 -29.86,-172.7 -90.09,-218.55 -60.24,-45.84 -127.93,-68.76 -202.56,-68.76 -74.63,0 -140.73,22.92 -198.83,68.76 -58.1,45.85 -87.42,118.87 -87.42,218.55l0 1062.38 -438.17 0 0 -973.89c0,-283.05 74.09,-472.82 221.75,-568.23 147.66,-95.95 311.3,-147.66 490.41,-156.19 182.84,0 351.81,47.98 505.87,143.39 154.05,95.95 230.81,289.45 230.81,581.03l0 973.89zm1250.26 -834.76c-58.63,29.32 -139.66,55.97 -244.13,81.02 -95.95,20.79 -143.93,31.45 -143.93,31.45 -75.16,20.79 -129.53,47.98 -163.11,81.03 -29.32,45.84 -43.71,91.68 -43.71,137.52 0,62.37 18.65,112.48 56.5,149.79 37.31,33.58 91.69,50.11 162.58,50.11 116.74,0 208.96,-33.58 275.59,-100.21 66.63,-66.64 100.21,-157.79 100.21,-274.53l0 -156.18zm99.69 766.53c-87.43,45.84 -180.18,74.09 -278.26,84.75 -98.08,10.13 -184.43,15.46 -259.6,15.46 -150.32,0 -281.45,-40.51 -393.92,-122.07 -112.48,-81.02 -168.98,-215.35 -168.98,-402.98 0,-175.38 51.17,-300.11 153.52,-375.27 101.81,-75.16 232.41,-125.27 390.73,-150.32 20.79,0 45.84,-2.67 75.16,-9.07 29.32,-6.39 62.37,-11.72 100.21,-15.99 183.37,-24.52 275.06,-78.89 275.06,-162.05 0,-62.9 -32.52,-103.41 -97.02,-122.07 -64.5,-18.65 -123.67,-28.25 -178.04,-28.25 -58.1,0 -110.34,8.53 -156.18,25.59 -45.85,17.06 -78.89,49.04 -99.68,95.95l-418.45 0c16.52,-129.53 74.63,-236.14 174.84,-319.83 112.48,-95.95 272.92,-143.93 480.82,-143.93 233.47,0 408.31,39.45 525.05,118.87 121.01,83.16 181.24,199.9 181.24,349.69l0 568.23c0,166.85 -30.38,296.91 -90.62,390.73 -60.77,93.28 -132.73,160.98 -215.88,202.56z"/>
  <path class="fil1" d="M16727.5 12940.1l571.02 0c21.56,164.14 84.15,278.9 187.09,344.28 108.5,76.5 258.03,114.76 448.6,114.76 168.32,0 296.29,-29.91 383.23,-89.72 86.94,-59.82 130.06,-146.76 130.06,-260.82 0,-173.88 -244.12,-315.07 -733.07,-424.26l-15.99 -7.65c0,0 -21.56,-5.57 -65.38,-16.69 -276.81,-59.82 -461.12,-122.41 -553.63,-187.1 -108.5,-59.81 -184.31,-147.44 -228.12,-261.51 -54.25,-97.37 -81.38,-222.56 -81.38,-374.88 0,-266.38 92.5,-475.73 277.51,-628.04 185,-146.76 454.17,-219.78 807.49,-219.78 331.75,0 587.01,75.81 766.45,228.12 184.31,169.01 282.38,388.79 292.81,660.74l-325.5 0c-125.19,0 -214.91,-57.03 -269.16,-171.79l0 0c-27.13,-54.25 -65.38,-100.85 -114.07,-139.11 -98.06,-70.94 -230.91,-106.41 -399.22,-106.41 -163.44,0 -280.29,29.91 -350.54,89.72 -81.37,59.82 -122.41,143.97 -122.41,252.47 0,146.75 157.19,255.95 471.56,326.2 92.5,27.12 159.97,43.81 203.09,49.38 98.07,32.69 182.92,58.42 256.64,77.2 73.03,18.78 131.45,34.08 174.57,44.51 76.51,32.69 152.32,65.38 228.83,98.07 108.5,65.38 193.35,149.53 253.16,253.16 59.82,114.07 89.72,239.26 89.72,374.88 0,293.51 -98.06,521.64 -294.2,685.08 -195.44,152.32 -472.94,228.13 -831.83,228.13 -369.31,0 -646.13,-78.59 -831.13,-236.47 -201,-157.89 -309.5,-392.27 -326.2,-702.47zm3937.6 -217c-76.51,38.25 -182.22,73.03 -318.54,105.72 -125.19,27.12 -187.79,41.03 -187.79,41.03 -98.07,27.13 -169.01,62.6 -212.83,105.72 -38.25,59.82 -57.03,119.63 -57.03,179.44 0,81.38 24.34,146.76 73.73,195.44 48.68,43.82 119.62,65.38 212.13,65.38 152.31,0 272.64,-43.82 359.58,-130.76 86.93,-86.94 130.75,-205.87 130.75,-358.18l0 -203.79zm130.06 1000.14c-114.06,59.82 -235.08,96.68 -363.05,110.59 -127.98,13.22 -240.65,20.17 -338.72,20.17 -196.13,0 -367.23,-52.86 -513.98,-159.27 -146.75,-105.72 -220.48,-280.99 -220.48,-525.81 0,-228.82 66.77,-391.57 200.31,-489.64 132.84,-98.06 303.24,-163.44 509.81,-196.13 27.12,0 59.81,-3.48 98.07,-11.82 38.25,-8.35 81.37,-15.3 130.75,-20.87 239.26,-31.99 358.88,-102.93 358.88,-211.43 0,-82.07 -42.42,-134.93 -126.58,-159.28 -84.15,-24.34 -161.36,-36.86 -232.3,-36.86 -75.81,0 -143.97,11.13 -203.78,33.39 -59.82,22.25 -102.94,63.98 -130.06,125.19l-545.98 0c21.56,-169.01 97.37,-308.11 228.13,-417.31 146.75,-125.19 356.1,-187.78 627.35,-187.78 304.63,0 532.76,51.46 685.08,155.09 157.88,108.5 236.47,260.82 236.47,456.26l0 741.41c0,217.7 -39.64,387.4 -118.24,509.81 -79.29,121.72 -173.18,210.04 -281.68,264.29zm2655.78 -2076.09l0 1271.39c0,385.31 -100.16,637.78 -301.16,756.71 -201,118.94 -421.48,178.75 -660.04,178.75 -233.69,-11.13 -447.21,-75.81 -639.87,-194.74 -192.65,-118.93 -289.33,-365.84 -289.33,-740.72l0 -1271.39 571.71 0 0 1385.45c0,130.06 38.25,225.35 114.06,285.16 75.81,59.82 162.06,89.72 259.43,89.72 97.37,0 185.7,-29.9 264.29,-89.72 78.59,-59.81 117.54,-155.1 117.54,-285.16l0 -1108.64 0 0c0,-75.81 25.74,-141.19 77.9,-195.44 51.47,-54.25 118.24,-81.37 199.61,-81.37l285.86 0zm-367.23 -710.12l-496.6 513.29 -260.81 0 228.12 -415.22c5.57,-16.69 22.96,-36.86 52.86,-61.21 29.91,-24.34 69.55,-36.86 118.24,-36.86l358.19 0zm2177.95 62.6l277.51 0c76.51,0 141.19,28.51 196.13,85.55 54.25,57.03 81.38,121.01 81.38,191.96l0 1589.93c0,386.01 -111.28,646.83 -334.54,783.15 -223.26,135.62 -465.3,203.78 -726.81,203.78 -141.19,0 -280.29,-22.95 -415.91,-69.55 -136.32,-45.9 -244.82,-120.32 -326.89,-223.95 -157.88,-201.01 -236.48,-475.04 -236.48,-822.79 0,-342.89 78.6,-616.92 236.48,-823.49 163.44,-212.13 372.79,-317.84 628.74,-317.84 136.32,0 255.95,27.12 358.88,81.37 109.2,65.38 196.13,149.53 261.51,252.47l0 -930.59zm-930.59 1713.73c0,217.7 41.04,383.23 122.41,497.99 81.37,114.06 198.92,171.09 351.23,171.09 146.76,0 260.82,-57.03 342.89,-171.09 75.81,-114.76 114.06,-280.29 114.06,-497.99 0,-196.13 -41.03,-351.23 -122.41,-465.29 -86.94,-109.2 -203.78,-163.45 -351.23,-163.45 -141.19,0 -253.17,57.03 -334.54,171.1 -81.37,109.19 -122.41,261.51 -122.41,457.64zm3374.24 431.22l407.56 0c-59.81,228.13 -173.87,402.01 -342.19,521.63 -168.31,125.19 -380.44,187.79 -635.69,187.79 -309.5,0 -552.24,-100.85 -726.11,-301.85 -174.58,-195.44 -261.52,-475.03 -261.52,-839.48 0,-347.76 84.16,-619.01 253.17,-814.44 174.57,-201.01 416.61,-301.85 726.11,-301.85 326.2,0 578.67,97.37 758.11,292.8 173.87,200.31 260.81,479.91 260.81,838.09 0,21.57 0,40.34 0,56.34 0,16.69 0,27.13 0,32.69 0,27.12 -2.78,45.9 -8.34,57.03l-1409.8 0c5.56,169.71 45.9,295.59 122.41,377.66 70.24,87.64 176.66,131.45 317.85,131.45 92.5,0 171.09,-19.47 236.47,-57.72 16,-4.87 31.3,-14.61 44.51,-28.52 13.91,-13.21 28.52,-28.51 45.21,-45.21 4.87,-15.99 25.73,-38.25 60.51,-65.37 35.47,-27.13 86.24,-41.04 150.93,-41.04zm-977.89 -638.48l831.13 0c-10.43,-146.05 -48.68,-254.55 -114.06,-324.8 -70.25,-75.81 -171.1,-113.37 -301.16,-113.37 -119.62,0 -217.69,37.56 -293.5,113.37 -76.51,75.81 -116.85,184.31 -122.41,324.8z"/>
  <path class="fil1" d="M12460.41 10389.64l0 -2218.41c0,-71.89 25.2,-133.35 75.59,-183.74 50.39,-50.39 111.84,-75.58 183.74,-75.58l714.06 0c379.78,0 663.07,100.78 850.5,302.34 187.42,211.39 281.44,523.57 281.44,936.52 0,220.62 -33.79,420.33 -100.78,597.93 -76.81,182.51 -178.21,321.39 -302.95,417.87 -105.7,81.12 -218.77,138.88 -339.22,172.68 -114.91,33.8 -290.66,50.39 -526.02,50.39l-836.36 0zm497.76 -446.14l410.5 0c235.36,0 408.03,-62.68 518.65,-187.43 105.69,-115.53 158.54,-317.09 158.54,-605.3 0,-278.99 -50.39,-483.01 -151.17,-612.67 -95.86,-129.66 -249.49,-194.8 -460.89,-194.8l-475.63 0 0 1600.2zm3289.79 -143.8l360.11 0c-52.85,201.57 -153.63,355.19 -302.34,460.89 -148.72,110.61 -336.14,165.92 -561.67,165.92 -273.46,0 -487.93,-89.1 -641.56,-266.7 -154.24,-172.68 -231.06,-419.71 -231.06,-741.72 0,-307.26 74.36,-546.92 223.69,-719.6 154.24,-177.6 368.09,-266.7 641.55,-266.7 288.21,0 511.28,86.03 669.83,258.71 153.63,176.98 230.44,424.02 230.44,740.49 0,19.05 0,35.65 0,49.78 0,14.75 0,23.97 0,28.88 0,23.97 -2.46,40.56 -7.37,50.39l-1245.63 0c4.92,149.94 40.56,261.17 108.16,333.69 62.06,77.42 156.08,116.14 280.83,116.14 81.73,0 151.17,-17.21 208.94,-51.01 14.13,-4.3 27.65,-12.9 39.33,-25.19 12.29,-11.68 25.19,-25.2 39.94,-39.94 4.3,-14.14 22.74,-33.8 53.46,-57.77 31.34,-23.97 76.2,-36.26 133.35,-36.26zm-864.01 -564.12l734.35 0c-9.22,-129.05 -43.02,-224.92 -100.78,-286.98 -62.07,-66.98 -151.17,-100.17 -266.09,-100.17 -105.69,0 -192.34,33.19 -259.32,100.17 -67.6,66.98 -103.24,162.85 -108.16,286.98zm2880.52 -82.96c0,278.37 60.22,489.77 180.06,634.18 119.83,148.71 290.66,223.07 511.27,223.07 216.31,0 386.53,-74.36 511.28,-223.07 124.75,-154.24 187.43,-365.02 187.43,-634.18 0,-269.16 -62.68,-483.01 -187.43,-641.56 -124.75,-148.71 -294.97,-223.07 -511.28,-223.07 -220.61,0 -391.44,74.36 -511.27,223.07 -119.84,149.33 -180.06,363.18 -180.06,641.56zm-512.51 0c0,-403.74 105.7,-722.67 317.1,-958.03 226.14,-235.36 521.72,-352.74 886.74,-352.74 360.72,0 656.31,117.38 886.75,352.74 216.31,240.27 324.47,559.21 324.47,958.03 0,398.2 -108.16,715.3 -324.47,950.04 -221.23,230.44 -516.81,345.97 -886.75,345.97 -374.85,0 -670.43,-115.53 -886.74,-345.97 -211.4,-229.83 -317.1,-546.92 -317.1,-950.04zm2802.48 -1240.71l259.94 0c66.99,0 124.75,22.74 173.3,68.21 47.93,46.09 71.9,102.01 71.9,169.61l0 2239.91 -505.14 0 0 -2477.73zm2046.01 1102.44c-72.51,-100.78 -170.83,-151.17 -295.58,-151.17 -134.58,0 -238.43,47.93 -310.33,143.8 -71.9,95.86 -108.16,227.98 -108.16,396.36l0 986.3 -490.38 0 0 -2477.73 245.19 0c67.6,0 124.75,23.96 173.3,71.9 47.93,47.93 71.89,105.69 71.89,173.29l0 568.43c86.65,-143.8 208.94,-234.75 368.1,-273.46 158.55,-38.1 309.72,-28.88 454.13,28.88 134.58,57.77 247.65,148.71 338.6,273.46 91.56,125.36 137.03,298.04 137.03,518.65l0 1116.58 -483.01 0 0 -993.67c0,-71.9 -6.14,-138.27 -17.82,-197.88 -12.29,-60.22 -39.94,-121.67 -82.96,-183.74zm1158.03 1202.61c-100.78,-86.65 -172.68,-202.79 -216.31,-349.66 -43.01,-146.25 -64.52,-298.65 -64.52,-457.2 0,-129.66 17.82,-259.33 54.08,-388.99 35.64,-129.66 92.17,-237.2 168.99,-323.85 124.74,-143.8 285.75,-229.21 482.39,-255.64 197.26,-26.42 374.86,-11.06 533.4,46.71 181.9,71.89 316.48,197.26 403.13,374.85 81.73,157.93 122.29,342.9 122.29,554.29 0,153.63 -16.6,285.75 -50.39,395.75 -33.8,110.62 -76.82,204.64 -129.67,281.45 -114.91,157.93 -261.78,256.26 -439.38,294.97 -158.54,43.02 -317.7,46.7 -478.71,11.06 -161,-36.26 -289.43,-97.71 -385.3,-183.74zm344.75 -1267.75c-100.78,110.62 -146.26,275.31 -136.43,493.46 9.22,218.15 50.39,370.55 122.29,457.2 28.88,38.71 79.28,70.67 151.17,97.09 71.9,26.43 145.03,28.89 219.39,7.38 74.35,-21.51 140.72,-75.59 198.48,-162.23 57.15,-86.04 88.5,-225.53 93.41,-417.26 0,-173.29 -27.65,-302.96 -82.96,-388.99 -55.3,-86.65 -118.6,-141.95 -190.5,-165.92 -71.9,-23.97 -144.41,-25.19 -216.31,-3.69 -71.9,22.13 -124.75,49.78 -158.54,82.96z"/>
  <path class="fil0" d="M14081.66 13115.97l-219.09 0c-62.36,0 -113.54,-19.72 -152.98,-59.17 -39.98,-39.98 -59.7,-90.62 -59.7,-153.52l0 0 0 -849.69c0,-99.68 -29.86,-172.7 -90.09,-218.55 -60.24,-45.84 -127.93,-68.76 -202.56,-68.76 -74.63,0 -140.73,22.92 -198.83,68.76 -58.1,45.85 -87.42,118.87 -87.42,218.55l0 1062.38 -438.17 0 0 -973.89c0,-283.05 74.09,-472.82 221.75,-568.23 147.66,-95.95 311.3,-147.66 490.41,-156.19 182.84,0 351.81,47.98 505.87,143.39 154.05,95.95 230.81,289.45 230.81,581.03l0 973.89zm1250.26 -834.76c-58.63,29.32 -139.66,55.97 -244.13,81.02 -95.95,20.79 -143.93,31.45 -143.93,31.45 -75.16,20.79 -129.53,47.98 -163.11,81.03 -29.32,45.84 -43.71,91.68 -43.71,137.52 0,62.37 18.65,112.48 56.5,149.79 37.31,33.58 91.69,50.11 162.58,50.11 116.74,0 208.96,-33.58 275.59,-100.21 66.63,-66.64 100.21,-157.79 100.21,-274.53l0 -156.18zm99.69 766.53c-87.43,45.84 -180.18,74.09 -278.26,84.75 -98.08,10.13 -184.43,15.46 -259.6,15.46 -150.32,0 -281.45,-40.51 -393.92,-122.07 -112.48,-81.02 -168.98,-215.35 -168.98,-402.98 0,-175.38 51.17,-300.11 153.52,-375.27 101.81,-75.16 232.41,-125.27 390.73,-150.32 20.79,0 45.84,-2.67 75.16,-9.07 29.32,-6.39 62.37,-11.72 100.21,-15.99 183.37,-24.52 275.06,-78.89 275.06,-162.05 0,-62.9 -32.52,-103.41 -97.02,-122.07 -64.5,-18.65 -123.67,-28.25 -178.04,-28.25 -58.1,0 -110.34,8.53 -156.18,25.59 -45.85,17.06 -78.89,49.04 -99.68,95.95l-418.45 0c16.52,-129.53 74.63,-236.14 174.84,-319.83 112.48,-95.95 272.92,-143.93 480.82,-143.93 233.47,0 408.31,39.45 525.05,118.87 121.01,83.16 181.24,199.9 181.24,349.69l0 568.23c0,166.85 -30.38,296.91 -90.62,390.73 -60.77,93.28 -132.73,160.98 -215.88,202.56z"/>
  <path class="fil0" d="M16660.28 12856.08l571.02 0c21.56,164.14 84.15,278.9 187.09,344.28 108.5,76.5 258.03,114.76 448.6,114.76 168.32,0 296.29,-29.91 383.23,-89.72 86.94,-59.82 130.06,-146.76 130.06,-260.82 0,-173.88 -244.12,-315.07 -733.07,-424.26l-15.99 -7.65c0,0 -21.56,-5.57 -65.38,-16.69 -276.81,-59.82 -461.12,-122.41 -553.63,-187.1 -108.5,-59.81 -184.31,-147.44 -228.12,-261.51 -54.25,-97.37 -81.38,-222.56 -81.38,-374.88 0,-266.38 92.5,-475.73 277.51,-628.04 185,-146.76 454.17,-219.78 807.49,-219.78 331.75,0 587.01,75.81 766.45,228.12 184.31,169.01 282.38,388.79 292.81,660.74l-325.5 0c-125.19,0 -214.91,-57.03 -269.16,-171.79l0 0c-27.13,-54.25 -65.38,-100.85 -114.07,-139.11 -98.06,-70.94 -230.91,-106.41 -399.22,-106.41 -163.44,0 -280.29,29.91 -350.54,89.72 -81.37,59.82 -122.41,143.97 -122.41,252.47 0,146.75 157.19,255.95 471.56,326.2 92.5,27.12 159.97,43.81 203.09,49.38 98.07,32.69 182.92,58.42 256.64,77.2 73.03,18.78 131.45,34.08 174.57,44.51 76.51,32.69 152.32,65.38 228.83,98.07 108.5,65.38 193.35,149.53 253.16,253.16 59.82,114.07 89.72,239.26 89.72,374.88 0,293.51 -98.06,521.64 -294.2,685.08 -195.44,152.32 -472.94,228.13 -831.83,228.13 -369.31,0 -646.13,-78.59 -831.13,-236.47 -201,-157.89 -309.5,-392.27 -326.2,-702.47zm3937.6 -217c-76.51,38.25 -182.22,73.03 -318.54,105.72 -125.19,27.12 -187.79,41.03 -187.79,41.03 -98.07,27.13 -169.01,62.6 -212.83,105.72 -38.25,59.82 -57.03,119.63 -57.03,179.44 0,81.38 24.34,146.76 73.73,195.44 48.68,43.82 119.62,65.38 212.13,65.38 152.31,0 272.64,-43.82 359.58,-130.76 86.93,-86.94 130.75,-205.87 130.75,-358.18l0 -203.79zm130.06 1000.14c-114.06,59.82 -235.08,96.68 -363.05,110.59 -127.98,13.22 -240.65,20.17 -338.72,20.17 -196.13,0 -367.23,-52.86 -513.98,-159.27 -146.75,-105.72 -220.48,-280.99 -220.48,-525.81 0,-228.82 66.77,-391.57 200.31,-489.64 132.84,-98.06 303.24,-163.44 509.81,-196.13 27.12,0 59.81,-3.48 98.07,-11.82 38.25,-8.35 81.37,-15.3 130.75,-20.87 239.26,-31.99 358.88,-102.93 358.88,-211.43 0,-82.07 -42.42,-134.93 -126.58,-159.28 -84.15,-24.34 -161.36,-36.86 -232.3,-36.86 -75.81,0 -143.97,11.13 -203.78,33.39 -59.82,22.25 -102.94,63.98 -130.06,125.19l-545.98 0c21.56,-169.01 97.37,-308.11 228.13,-417.31 146.75,-125.19 356.1,-187.78 627.35,-187.78 304.63,0 532.76,51.46 685.08,155.09 157.88,108.5 236.47,260.82 236.47,456.26l0 741.41c0,217.7 -39.64,387.4 -118.24,509.81 -79.29,121.72 -173.18,210.04 -281.68,264.29zm2655.78 -2076.09l0 1271.39c0,385.31 -100.16,637.78 -301.16,756.71 -201,118.94 -421.48,178.75 -660.04,178.75 -233.69,-11.13 -447.21,-75.81 -639.87,-194.74 -192.65,-118.93 -289.33,-365.84 -289.33,-740.72l0 -1271.39 571.71 0 0 1385.45c0,130.06 38.25,225.35 114.06,285.16 75.81,59.82 162.06,89.72 259.43,89.72 97.37,0 185.7,-29.9 264.29,-89.72 78.59,-59.81 117.54,-155.1 117.54,-285.16l0 -1108.64 0 0c0,-75.81 25.74,-141.19 77.9,-195.44 51.47,-54.25 118.24,-81.37 199.61,-81.37l285.86 0zm-367.23 -710.12l-496.6 513.29 -260.81 0 228.12 -415.22c5.57,-16.69 22.96,-36.86 52.86,-61.21 29.91,-24.34 69.55,-36.86 118.24,-36.86l358.19 0zm2177.95 62.6l277.51 0c76.51,0 141.19,28.51 196.13,85.55 54.25,57.03 81.38,121.01 81.38,191.96l0 1589.93c0,386.01 -111.28,646.83 -334.54,783.15 -223.26,135.62 -465.3,203.78 -726.81,203.78 -141.19,0 -280.29,-22.95 -415.91,-69.55 -136.32,-45.9 -244.82,-120.32 -326.89,-223.95 -157.88,-201.01 -236.48,-475.04 -236.48,-822.79 0,-342.89 78.6,-616.92 236.48,-823.49 163.44,-212.13 372.79,-317.84 628.74,-317.84 136.32,0 255.95,27.12 358.88,81.37 109.2,65.38 196.13,149.53 261.51,252.47l0 -930.59zm-930.59 1713.73c0,217.7 41.04,383.23 122.41,497.99 81.37,114.06 198.92,171.09 351.23,171.09 146.76,0 260.82,-57.03 342.89,-171.09 75.81,-114.76 114.06,-280.29 114.06,-497.99 0,-196.13 -41.03,-351.23 -122.41,-465.29 -86.94,-109.2 -203.78,-163.45 -351.23,-163.45 -141.19,0 -253.17,57.03 -334.54,171.1 -81.37,109.19 -122.41,261.51 -122.41,457.64zm3374.24 431.22l407.56 0c-59.81,228.13 -173.87,402.01 -342.19,521.63 -168.31,125.19 -380.44,187.79 -635.69,187.79 -309.5,0 -552.24,-100.85 -726.11,-301.85 -174.58,-195.44 -261.52,-475.03 -261.52,-839.48 0,-347.76 84.16,-619.01 253.17,-814.44 174.57,-201.01 416.61,-301.85 726.11,-301.85 326.2,0 578.67,97.37 758.11,292.8 173.87,200.31 260.81,479.91 260.81,838.09 0,21.57 0,40.34 0,56.34 0,16.69 0,27.13 0,32.69 0,27.12 -2.78,45.9 -8.34,57.03l-1409.8 0c5.56,169.71 45.9,295.59 122.41,377.66 70.24,87.64 176.66,131.45 317.85,131.45 92.5,0 171.09,-19.47 236.47,-57.72 16,-4.87 31.3,-14.61 44.51,-28.52 13.91,-13.21 28.52,-28.51 45.21,-45.21 4.87,-15.99 25.73,-38.25 60.51,-65.37 35.47,-27.13 86.24,-41.04 150.93,-41.04zm-977.89 -638.48l831.13 0c-10.43,-146.05 -48.68,-254.55 -114.06,-324.8 -70.25,-75.81 -171.1,-113.37 -301.16,-113.37 -119.62,0 -217.69,37.56 -293.5,113.37 -76.51,75.81 -116.85,184.31 -122.41,324.8z"/>
  <g id="_1702357346304">
   <g>
    <path class="fil2" d="M7777.32 6480.13c1964.59,0 3557.23,1592.63 3557.23,3557.22 0,1140.18 -536.5,2154.98 -1370.75,2805.97 602.49,-607.28 974.77,-1443.28 974.77,-2366.3 0,-1855.64 -1504.32,-3359.97 -3359.96,-3359.97 -1778.94,0 -3234.74,1382.57 -3352.11,3131.74 -4.11,-69.98 -6.43,-140.43 -6.43,-211.44 0,-1964.59 1592.64,-3557.22 3557.25,-3557.22z"/>
    <path class="fil3" d="M7504.87 14866.26c-2311.81,0 -4185.91,-1874.1 -4185.91,-4185.91 0,-1341.68 631.32,-2535.83 1613,-3301.87 -708.97,714.6 -1147.05,1698.35 -1147.05,2784.5 0,2183.6 1770.19,3953.79 3953.79,3953.79 2093.34,0 3806.42,-1626.91 3944.54,-3685.22 4.83,82.34 7.56,165.25 7.56,248.8 0,2311.81 -1874.11,4185.91 -4185.93,4185.91z"/>
   </g>
   <g>
    <path class="fil4" d="M9705.03 11054.34c-481.74,1081.48 -1703.15,1891.65 -2252.47,2175.3 -566.65,-287.93 -1819.22,-1165.36 -2301.47,-2186.04l968.85 0 350.5 -906.18 647.11 2297.22 517.54 -1423.24 573.45 0 258.54 -856.41 245.28 899.35 992.67 0z"/>
    <path class="fil3" d="M6346.92 8655.22c438.44,0 829.39,227.74 1084.17,583.42 254.77,-355.68 645.73,-583.42 1084.17,-583.42 767.72,0 1414.84,698.42 1390.09,1559.16 -6.21,215.69 -47.71,424.58 -115.96,625.27l-913.05 0 -398.78 -1462.2 -428.45 1419.26 -564.39 0 -341.21 938.31 -641.01 -2275.6 -529.71 1369.49 -910.64 0c-71.57,-201.69 -110.27,-407.62 -105.32,-614.53 20.59,-860.85 622.37,-1559.16 1390.09,-1559.16z"/>
   </g>
  </g>
 </g>
</svg>
